STARTFONT 2.1
FONT -Adobe-ITC Lubalin Graph-Book-O-Normal--12-120-75-75-P-70-ISO8859-1
SIZE 12 75 75
FONTBOUNDINGBOX 16 15 -2 -3

STARTPROPERTIES 25
FONTNAME_REGISTRY ""
FAMILY_NAME "ITC Lubalin Graph"
FOUNDRY "Adobe"
WEIGHT_NAME "Book"
SLANT "O"
SETWIDTH_NAME "Normal"
ADD_STYLE_NAME ""
PIXEL_SIZE 12
POINT_SIZE 120
RESOLUTION_X 75
RESOLUTION_Y 75
SPACING "P"
AVERAGE_WIDTH 70
CHARSET_REGISTRY "ISO8859"
CHARSET_ENCODING "1"
CHARSET_COLLECTIONS "ASCII ISO8859-1 ADOBE-STANDARD"
FULL_NAME "ITC Lubalin Graph Book Oblique"
COPYRIGHT "Copyright (c) 1984 Adobe Systems, Inc., Portions Copyright 1988 Digital Equipment Corp."
CAP_HEIGHT 9
X_HEIGHT 7
WEIGHT 10
QUAD_WIDTH 8
DEFAULT_CHAR 32
FONT_DESCENT 3
FONT_ASCENT 11
ENDPROPERTIES

CHARS 190

STARTCHAR space
ENCODING 32
SWIDTH 300 0
DWIDTH 4 0
BBX 1 1 0 0
BITMAP
00
ENDCHAR

STARTCHAR exclam
ENCODING 33
SWIDTH 140 0
DWIDTH 4 0
BBX 2 9 1 0
BITMAP
40
40
40
40
80
80
80
00
80
ENDCHAR

STARTCHAR quotedbl
ENCODING 34
SWIDTH 280 0
DWIDTH 5 0
BBX 4 3 1 6
BITMAP
50
50
A0
ENDCHAR

STARTCHAR numbersign
ENCODING 35
SWIDTH 580 0
DWIDTH 7 0
BBX 7 8 0 1
BITMAP
14
14
7E
28
28
FC
50
50
ENDCHAR

STARTCHAR dollar
ENCODING 36
SWIDTH 580 0
DWIDTH 7 0
BBX 7 11 0 -1
BITMAP
08
3A
56
52
50
38
2C
A4
E4
B8
20
ENDCHAR

STARTCHAR percent
ENCODING 37
SWIDTH 800 0
DWIDTH 10 0
BBX 8 9 1 0
BITMAP
62
94
94
68
10
16
29
49
46
ENDCHAR

STARTCHAR ampersand
ENCODING 38
SWIDTH 720 0
DWIDTH 9 0
BBX 9 9 0 0
BITMAP
1800
2400
2400
1980
3200
4C00
8400
8A00
7100
ENDCHAR

STARTCHAR quoteright
ENCODING 39
SWIDTH 200 0
DWIDTH 3 0
BBX 2 2 1 7
BITMAP
40
80
ENDCHAR

STARTCHAR parenleft
ENCODING 40
SWIDTH 340 0
DWIDTH 5 0
BBX 4 11 1 -2
BITMAP
10
20
40
40
80
80
80
80
40
40
20
ENDCHAR

STARTCHAR parenright
ENCODING 41
SWIDTH 340 0
DWIDTH 5 0
BBX 4 11 0 -2
BITMAP
40
20
20
10
10
10
10
20
20
40
80
ENDCHAR

STARTCHAR asterisk
ENCODING 42
SWIDTH 340 0
DWIDTH 5 0
BBX 3 3 1 6
BITMAP
A0
40
A0
ENDCHAR

STARTCHAR plus
ENCODING 43
SWIDTH 660 0
DWIDTH 8 0
BBX 6 7 1 1
BITMAP
10
10
10
FC
20
20
20
ENDCHAR

STARTCHAR comma
ENCODING 44
SWIDTH 300 0
DWIDTH 3 0
BBX 2 3 0 -1
BITMAP
40
40
80
ENDCHAR

STARTCHAR minus
ENCODING 45
SWIDTH 660 0
DWIDTH 7 0
BBX 5 1 1 4
BITMAP
F8
ENDCHAR

STARTCHAR period
ENCODING 46
SWIDTH 300 0
DWIDTH 3 0
BBX 1 2 0 0
BITMAP
80
80
ENDCHAR

STARTCHAR slash
ENCODING 47
SWIDTH 580 0
DWIDTH 6 0
BBX 6 11 0 -2
BITMAP
04
08
08
10
10
20
20
40
40
80
80
ENDCHAR

STARTCHAR zero
ENCODING 48
SWIDTH 580 0
DWIDTH 7 0
BBX 7 9 0 0
BITMAP
3C
42
42
42
84
84
84
84
78
ENDCHAR

STARTCHAR one
ENCODING 49
SWIDTH 580 0
DWIDTH 7 0
BBX 3 9 2 0
BITMAP
E0
20
20
20
40
40
40
40
E0
ENDCHAR

STARTCHAR two
ENCODING 50
SWIDTH 580 0
DWIDTH 7 0
BBX 7 9 0 0
BITMAP
1C
22
22
02
04
18
20
44
FC
ENDCHAR

STARTCHAR three
ENCODING 51
SWIDTH 580 0
DWIDTH 7 0
BBX 7 9 0 0
BITMAP
1C
22
02
04
18
04
84
84
78
ENDCHAR

STARTCHAR four
ENCODING 52
SWIDTH 580 0
DWIDTH 7 0
BBX 6 9 0 0
BITMAP
04
0C
14
24
48
88
FC
08
1C
ENDCHAR

STARTCHAR five
ENCODING 53
SWIDTH 580 0
DWIDTH 7 0
BBX 7 9 0 0
BITMAP
3E
20
40
78
44
04
84
88
70
ENDCHAR

STARTCHAR six
ENCODING 54
SWIDTH 580 0
DWIDTH 7 0
BBX 6 9 0 0
BITMAP
08
10
20
58
C4
84
84
88
70
ENDCHAR

STARTCHAR seven
ENCODING 55
SWIDTH 580 0
DWIDTH 7 0
BBX 6 9 1 0
BITMAP
FC
84
08
10
10
20
20
40
40
ENDCHAR

STARTCHAR eight
ENCODING 56
SWIDTH 580 0
DWIDTH 7 0
BBX 7 9 0 0
BITMAP
1C
22
22
14
38
44
84
84
78
ENDCHAR

STARTCHAR nine
ENCODING 57
SWIDTH 580 0
DWIDTH 7 0
BBX 6 9 1 0
BITMAP
38
44
84
84
88
78
10
20
40
ENDCHAR

STARTCHAR colon
ENCODING 58
SWIDTH 300 0
DWIDTH 4 0
BBX 2 6 1 0
BITMAP
40
40
00
00
80
80
ENDCHAR

STARTCHAR semicolon
ENCODING 59
SWIDTH 300 0
DWIDTH 4 0
BBX 3 7 0 -1
BITMAP
20
20
00
00
40
40
80
ENDCHAR

STARTCHAR less
ENCODING 60
SWIDTH 660 0
DWIDTH 10 0
BBX 8 7 1 0
BITMAP
03
0C
30
C0
30
0C
03
ENDCHAR

STARTCHAR equal
ENCODING 61
SWIDTH 660 0
DWIDTH 8 0
BBX 7 3 1 3
BITMAP
7E
00
FC
ENDCHAR

STARTCHAR greater
ENCODING 62
SWIDTH 660 0
DWIDTH 10 0
BBX 8 7 1 0
BITMAP
C0
30
0C
03
0C
30
C0
ENDCHAR

STARTCHAR question
ENCODING 63
SWIDTH 520 0
DWIDTH 6 0
BBX 5 9 1 0
BITMAP
70
88
88
10
20
40
40
00
40
ENDCHAR

STARTCHAR at
ENCODING 64
SWIDTH 900 0
DWIDTH 11 0
BBX 10 9 1 0
BITMAP
1F00
6080
4D40
9240
A440
A480
9B00
4080
3F00
ENDCHAR

STARTCHAR A
ENCODING 65
SWIDTH 820 0
DWIDTH 10 0
BBX 9 9 0 0
BITMAP
0C00
0400
0A00
1200
1200
3F00
4100
4100
E380
ENDCHAR

STARTCHAR B
ENCODING 66
SWIDTH 580 0
DWIDTH 7 0
BBX 7 9 0 0
BITMAP
7C
22
22
24
3C
42
42
44
F8
ENDCHAR

STARTCHAR C
ENCODING 67
SWIDTH 740 0
DWIDTH 8 0
BBX 8 9 0 0
BITMAP
1D
63
41
80
80
80
82
44
38
ENDCHAR

STARTCHAR D
ENCODING 68
SWIDTH 720 0
DWIDTH 9 0
BBX 9 9 0 0
BITMAP
7E00
2100
2080
2080
4080
4100
4100
4200
FC00
ENDCHAR

STARTCHAR E
ENCODING 69
SWIDTH 560 0
DWIDTH 7 0
BBX 7 9 0 0
BITMAP
7E
22
20
20
38
40
40
44
FC
ENDCHAR

STARTCHAR F
ENCODING 70
SWIDTH 560 0
DWIDTH 7 0
BBX 7 9 0 0
BITMAP
7E
22
20
20
38
40
40
40
E0
ENDCHAR

STARTCHAR G
ENCODING 71
SWIDTH 780 0
DWIDTH 8 0
BBX 8 9 0 0
BITMAP
1D
63
41
80
80
9E
82
46
3A
ENDCHAR

STARTCHAR H
ENCODING 72
SWIDTH 720 0
DWIDTH 9 0
BBX 9 9 0 0
BITMAP
7380
2100
2100
2100
7E00
4200
4200
4200
E700
ENDCHAR

STARTCHAR I
ENCODING 73
SWIDTH 300 0
DWIDTH 4 0
BBX 4 9 0 0
BITMAP
70
20
20
20
40
40
40
40
E0
ENDCHAR

STARTCHAR J
ENCODING 74
SWIDTH 520 0
DWIDTH 6 0
BBX 7 9 0 0
BITMAP
0E
04
04
04
08
08
88
88
70
ENDCHAR

STARTCHAR K
ENCODING 75
SWIDTH 700 0
DWIDTH 8 0
BBX 9 9 0 0
BITMAP
7380
2200
2400
2800
3000
5000
4800
4400
E700
ENDCHAR

STARTCHAR L
ENCODING 76
SWIDTH 520 0
DWIDTH 6 0
BBX 6 9 0 0
BITMAP
70
20
20
20
40
40
40
44
FC
ENDCHAR

STARTCHAR M
ENCODING 77
SWIDTH 980 0
DWIDTH 12 0
BBX 12 9 0 0
BITMAP
7070
3060
30A0
2920
4940
4A40
4640
4440
E4E0
ENDCHAR

STARTCHAR N
ENCODING 78
SWIDTH 800 0
DWIDTH 10 0
BBX 10 9 0 0
BITMAP
61C0
3080
3080
2880
2880
4500
4500
4300
E100
ENDCHAR

STARTCHAR O
ENCODING 79
SWIDTH 800 0
DWIDTH 9 0
BBX 9 9 0 0
BITMAP
1E00
6100
4080
8080
8080
8080
8100
4300
3C00
ENDCHAR

STARTCHAR P
ENCODING 80
SWIDTH 580 0
DWIDTH 7 0
BBX 7 9 0 0
BITMAP
7C
22
22
22
44
78
40
40
E0
ENDCHAR

STARTCHAR Q
ENCODING 81
SWIDTH 860 0
DWIDTH 9 0
BBX 9 9 0 0
BITMAP
1E00
6100
4080
8080
8080
B880
C700
4280
3D80
ENDCHAR

STARTCHAR R
ENCODING 82
SWIDTH 640 0
DWIDTH 8 0
BBX 8 9 0 0
BITMAP
7E
21
21
21
42
5C
48
44
E3
ENDCHAR

STARTCHAR S
ENCODING 83
SWIDTH 500 0
DWIDTH 7 0
BBX 7 9 0 0
BITMAP
1A
26
42
40
38
04
84
C4
B8
ENDCHAR

STARTCHAR T
ENCODING 84
SWIDTH 540 0
DWIDTH 8 0
BBX 7 9 1 0
BITMAP
FE
92
10
10
20
20
20
20
70
ENDCHAR

STARTCHAR U
ENCODING 85
SWIDTH 700 0
DWIDTH 9 0
BBX 8 9 1 0
BITMAP
E7
42
42
42
84
84
84
84
78
ENDCHAR

STARTCHAR V
ENCODING 86
SWIDTH 780 0
DWIDTH 8 0
BBX 9 9 0 0
BITMAP
E380
4100
4200
4200
2400
2800
2800
1000
1000
ENDCHAR

STARTCHAR W
ENCODING 87
SWIDTH 1040 0
DWIDTH 12 0
BBX 13 9 0 0
BITMAP
E238
4210
4620
4520
4940
2940
3180
3180
2100
ENDCHAR

STARTCHAR X
ENCODING 88
SWIDTH 740 0
DWIDTH 8 0
BBX 9 9 -1 0
BITMAP
7380
2100
1200
0C00
0800
1400
2200
4100
E380
ENDCHAR

STARTCHAR Y
ENCODING 89
SWIDTH 680 0
DWIDTH 8 0
BBX 9 9 0 0
BITMAP
E380
4100
4200
2400
2800
1000
1000
1000
3800
ENDCHAR

STARTCHAR Z
ENCODING 90
SWIDTH 520 0
DWIDTH 6 0
BBX 7 9 0 0
BITMAP
7E
44
08
10
20
20
40
84
FC
ENDCHAR

STARTCHAR bracketleft
ENCODING 91
SWIDTH 300 0
DWIDTH 4 0
BBX 5 11 0 -2
BITMAP
38
20
20
20
40
40
40
40
80
80
E0
ENDCHAR

STARTCHAR backslash
ENCODING 92
SWIDTH 580 0
DWIDTH 7 0
BBX 3 9 2 0
BITMAP
80
80
80
40
40
40
20
20
20
ENDCHAR

STARTCHAR bracketright
ENCODING 93
SWIDTH 300 0
DWIDTH 5 0
BBX 5 11 -1 -2
BITMAP
38
08
08
08
10
10
10
10
20
20
E0
ENDCHAR

STARTCHAR asciicircum
ENCODING 94
SWIDTH 660 0
DWIDTH 7 0
BBX 5 6 1 3
BITMAP
20
20
50
50
88
88
ENDCHAR

STARTCHAR underscore
ENCODING 95
SWIDTH 500 0
DWIDTH 6 0
BBX 7 1 -1 -2
BITMAP
FE
ENDCHAR

STARTCHAR quoteleft
ENCODING 96
SWIDTH 200 0
DWIDTH 3 0
BBX 2 2 1 7
BITMAP
80
40
ENDCHAR

STARTCHAR a
ENCODING 97
SWIDTH 660 0
DWIDTH 8 0
BBX 8 7 1 0
BITMAP
3B
46
84
84
84
8C
76
ENDCHAR

STARTCHAR b
ENCODING 98
SWIDTH 660 0
DWIDTH 8 0
BBX 8 9 0 0
BITMAP
60
20
2E
31
41
41
41
62
DC
ENDCHAR

STARTCHAR c
ENCODING 99
SWIDTH 560 0
DWIDTH 8 0
BBX 7 7 1 0
BITMAP
1A
66
44
80
80
C4
78
ENDCHAR

STARTCHAR d
ENCODING 100
SWIDTH 660 0
DWIDTH 8 0
BBX 7 9 1 0
BITMAP
06
02
3A
46
82
84
84
8C
76
ENDCHAR

STARTCHAR e
ENCODING 101
SWIDTH 580 0
DWIDTH 7 0
BBX 7 7 0 0
BITMAP
1C
62
42
FE
80
44
38
ENDCHAR

STARTCHAR f
ENCODING 102
SWIDTH 300 0
DWIDTH 4 0
BBX 5 9 0 0
BITMAP
18
20
70
20
40
40
40
40
E0
ENDCHAR

STARTCHAR g
ENCODING 103
SWIDTH 660 0
DWIDTH 8 0
BBX 9 9 0 -2
BITMAP
1D80
2300
4200
4200
4200
4600
3A00
8400
7800
ENDCHAR

STARTCHAR h
ENCODING 104
SWIDTH 640 0
DWIDTH 8 0
BBX 8 9 0 0
BITMAP
60
20
2E
31
21
42
42
42
E7
ENDCHAR

STARTCHAR i
ENCODING 105
SWIDTH 260 0
DWIDTH 3 0
BBX 3 9 0 0
BITMAP
20
00
60
20
20
40
40
40
E0
ENDCHAR

STARTCHAR j
ENCODING 106
SWIDTH 240 0
DWIDTH 3 0
BBX 4 12 -1 -3
BITMAP
10
00
30
10
10
20
20
20
20
40
40
80
ENDCHAR

STARTCHAR k
ENCODING 107
SWIDTH 580 0
DWIDTH 7 0
BBX 8 9 0 0
BITMAP
60
20
27
24
48
70
48
44
EE
ENDCHAR

STARTCHAR l
ENCODING 108
SWIDTH 280 0
DWIDTH 3 0
BBX 3 9 0 0
BITMAP
60
20
20
20
40
40
40
40
E0
ENDCHAR

STARTCHAR m
ENCODING 109
SWIDTH 980 0
DWIDTH 11 0
BBX 11 7 0 0
BITMAP
6CC0
3320
2220
4440
4440
4440
EEE0
ENDCHAR

STARTCHAR n
ENCODING 110
SWIDTH 660 0
DWIDTH 8 0
BBX 8 7 0 0
BITMAP
6E
31
21
42
42
42
E7
ENDCHAR

STARTCHAR o
ENCODING 111
SWIDTH 580 0
DWIDTH 8 0
BBX 7 7 1 0
BITMAP
3C
46
82
82
82
C4
78
ENDCHAR

STARTCHAR p
ENCODING 112
SWIDTH 660 0
DWIDTH 7 0
BBX 8 10 -1 -3
BITMAP
36
19
11
21
21
32
2C
40
40
E0
ENDCHAR

STARTCHAR q
ENCODING 113
SWIDTH 660 0
DWIDTH 7 0
BBX 8 10 0 -3
BITMAP
3B
46
84
84
84
8C
74
08
08
1C
ENDCHAR

STARTCHAR r
ENCODING 114
SWIDTH 360 0
DWIDTH 5 0
BBX 6 7 0 0
BITMAP
6C
30
20
40
40
40
E0
ENDCHAR

STARTCHAR s
ENCODING 115
SWIDTH 420 0
DWIDTH 6 0
BBX 6 7 0 0
BITMAP
3C
44
40
30
08
88
F0
ENDCHAR

STARTCHAR t
ENCODING 116
SWIDTH 320 0
DWIDTH 4 0
BBX 3 9 1 0
BITMAP
40
40
E0
40
40
80
80
80
C0
ENDCHAR

STARTCHAR u
ENCODING 117
SWIDTH 640 0
DWIDTH 8 0
BBX 7 7 1 0
BITMAP
C6
42
42
84
84
8C
76
ENDCHAR

STARTCHAR v
ENCODING 118
SWIDTH 640 0
DWIDTH 8 0
BBX 8 7 1 0
BITMAP
E7
42
44
48
48
30
30
ENDCHAR

STARTCHAR w
ENCODING 119
SWIDTH 900 0
DWIDTH 11 0
BBX 11 7 1 0
BITMAP
E0E0
4440
4480
4C80
5500
2200
2200
ENDCHAR

STARTCHAR x
ENCODING 120
SWIDTH 600 0
DWIDTH 7 0
BBX 8 7 0 0
BITMAP
77
24
18
10
28
44
EE
ENDCHAR

STARTCHAR y
ENCODING 121
SWIDTH 640 0
DWIDTH 8 0
BBX 8 10 1 -3
BITMAP
E7
42
44
48
48
30
20
20
40
E0
ENDCHAR

STARTCHAR z
ENCODING 122
SWIDTH 420 0
DWIDTH 5 0
BBX 6 7 0 0
BITMAP
7C
48
10
20
40
88
F8
ENDCHAR

STARTCHAR braceleft
ENCODING 123
SWIDTH 300 0
DWIDTH 4 0
BBX 4 11 0 -2
BITMAP
10
20
20
20
40
80
40
40
80
80
40
ENDCHAR

STARTCHAR bar
ENCODING 124
SWIDTH 660 0
DWIDTH 7 0
BBX 2 9 3 0
BITMAP
40
40
40
40
80
80
80
80
80
ENDCHAR

STARTCHAR braceright
ENCODING 125
SWIDTH 300 0
DWIDTH 4 0
BBX 4 11 -1 -2
BITMAP
20
10
10
10
20
10
20
20
20
40
80
ENDCHAR

STARTCHAR asciitilde
ENCODING 126
SWIDTH 660 0
DWIDTH 8 0
BBX 7 2 0 3
BITMAP
72
9C
ENDCHAR

STARTCHAR exclamdown
ENCODING 161
SWIDTH 140 0
DWIDTH 4 0
BBX 3 9 0 -3
BITMAP
20
00
40
40
40
40
80
80
80
ENDCHAR

STARTCHAR cent
ENCODING 162
SWIDTH 580 0
DWIDTH 7 0
BBX 6 7 1 1
BITMAP
10
7C
94
A0
A8
70
40
ENDCHAR

STARTCHAR sterling
ENCODING 163
SWIDTH 640 0
DWIDTH 8 0
BBX 8 9 0 0
BITMAP
1D
23
21
20
7C
10
12
22
FC
ENDCHAR

STARTCHAR currency
ENCODING 164
SWIDTH 560 0
DWIDTH 9 0
BBX 7 7 1 1
BITMAP
42
3C
42
82
84
78
84
ENDCHAR

STARTCHAR yen
ENCODING 165
SWIDTH 740 0
DWIDTH 10 0
BBX 8 9 1 0
BITMAP
E7
42
24
EF
10
FE
20
20
70
ENDCHAR

STARTCHAR brokenbar
ENCODING 166
SWIDTH 660 0
DWIDTH 7 0
BBX 2 9 3 0
BITMAP
40
40
40
00
00
80
80
80
80
ENDCHAR

STARTCHAR section
ENCODING 167
SWIDTH 440 0
DWIDTH 6 0
BBX 7 11 -1 -2
BITMAP
1C
22
20
38
44
44
44
38
08
88
70
ENDCHAR

STARTCHAR dieresis
ENCODING 168
SWIDTH 340 0
DWIDTH 5 0
BBX 3 1 2 8
BITMAP
A0
ENDCHAR

STARTCHAR copyright
ENCODING 169
SWIDTH 820 0
DWIDTH 11 0
BBX 10 9 1 0
BITMAP
1F00
6080
4E40
9140
A040
A240
9C80
4180
3E00
ENDCHAR

STARTCHAR ordfeminine
ENCODING 170
SWIDTH 420 0
DWIDTH 6 0
BBX 6 6 0 3
BITMAP
34
48
48
34
00
F8
ENDCHAR

STARTCHAR guillemotleft
ENCODING 171
SWIDTH 320 0
DWIDTH 6 0
BBX 4 3 1 2
BITMAP
50
A0
50
ENDCHAR

STARTCHAR logicalnot
ENCODING 172
SWIDTH 660 0
DWIDTH 8 0
BBX 6 4 1 2
BITMAP
FC
04
08
08
ENDCHAR

STARTCHAR hyphen
ENCODING 173
SWIDTH 300 0
DWIDTH 4 0
BBX 3 1 1 3
BITMAP
E0
ENDCHAR

STARTCHAR registered
ENCODING 174
SWIDTH 820 0
DWIDTH 11 0
BBX 10 9 1 0
BITMAP
1F00
6080
4E40
9240
9E40
A440
A280
4180
3E00
ENDCHAR

STARTCHAR macron
ENCODING 175
SWIDTH 460 0
DWIDTH 6 0
BBX 4 1 2 8
BITMAP
F0
ENDCHAR

STARTCHAR degree
ENCODING 176
SWIDTH 400 0
DWIDTH 5 0
BBX 4 4 1 5
BITMAP
60
90
90
60
ENDCHAR

STARTCHAR plusminus
ENCODING 177
SWIDTH 660 0
DWIDTH 8 0
BBX 7 7 0 1
BITMAP
08
08
7E
10
10
00
FC
ENDCHAR

STARTCHAR twosuperior
ENCODING 178
SWIDTH 348 0
DWIDTH 4 0
BBX 4 5 0 4
BITMAP
70
10
20
40
F0
ENDCHAR

STARTCHAR threesuperior
ENCODING 179
SWIDTH 348 0
DWIDTH 4 0
BBX 4 5 0 4
BITMAP
70
10
60
10
E0
ENDCHAR

STARTCHAR acute
ENCODING 180
SWIDTH 420 0
DWIDTH 4 0
BBX 2 2 2 8
BITMAP
40
80
ENDCHAR

STARTCHAR mu
ENCODING 181
SWIDTH 640 0
DWIDTH 8 0
BBX 8 10 0 -3
BITMAP
63
21
21
42
42
46
BB
80
80
80
ENDCHAR

STARTCHAR paragraph
ENCODING 182
SWIDTH 500 0
DWIDTH 7 0
BBX 7 11 0 -2
BITMAP
3E
74
F4
F4
68
28
28
28
50
50
50
ENDCHAR

STARTCHAR periodcentered
ENCODING 183
SWIDTH 300 0
DWIDTH 3 0
BBX 1 2 1 3
BITMAP
80
80
ENDCHAR

STARTCHAR cedilla
ENCODING 184
SWIDTH 320 0
DWIDTH 4 0
BBX 3 3 0 -3
BITMAP
40
20
C0
ENDCHAR

STARTCHAR onesuperior
ENCODING 185
SWIDTH 348 0
DWIDTH 4 0
BBX 3 5 1 4
BITMAP
60
20
40
40
E0
ENDCHAR

STARTCHAR ordmasculine
ENCODING 186
SWIDTH 340 0
DWIDTH 5 0
BBX 5 6 0 3
BITMAP
30
48
48
30
00
F0
ENDCHAR

STARTCHAR guillemotright
ENCODING 187
SWIDTH 320 0
DWIDTH 6 0
BBX 4 3 1 2
BITMAP
A0
50
A0
ENDCHAR

STARTCHAR onequarter
ENCODING 188
SWIDTH 870 0
DWIDTH 10 0
BBX 9 9 1 0
BITMAP
6200
2400
4400
4800
E900
1300
1500
2F80
2200
ENDCHAR

STARTCHAR onehalf
ENCODING 189
SWIDTH 870 0
DWIDTH 10 0
BBX 8 9 1 0
BITMAP
62
24
44
48
EB
15
12
24
2F
ENDCHAR

STARTCHAR threequarters
ENCODING 190
SWIDTH 870 0
DWIDTH 10 0
BBX 9 9 1 0
BITMAP
7200
1400
6400
1800
E900
1300
1500
2F80
2200
ENDCHAR

STARTCHAR questiondown
ENCODING 191
SWIDTH 520 0
DWIDTH 7 0
BBX 5 9 0 -3
BITMAP
08
00
10
10
20
40
88
88
70
ENDCHAR

STARTCHAR Agrave
ENCODING 192
SWIDTH 820 0
DWIDTH 10 0
BBX 9 12 0 0
BITMAP
0800
0400
0000
0C00
0400
0A00
1200
1200
3F00
4100
4100
E380
ENDCHAR

STARTCHAR Aacute
ENCODING 193
SWIDTH 820 0
DWIDTH 10 0
BBX 9 12 0 0
BITMAP
0200
0400
0000
0C00
0400
0A00
1200
1200
3F00
4100
4100
E380
ENDCHAR

STARTCHAR Acircumflex
ENCODING 194
SWIDTH 820 0
DWIDTH 10 0
BBX 9 12 0 0
BITMAP
0400
0A00
0000
0C00
0400
0A00
1200
1200
3F00
4100
4100
E380
ENDCHAR

STARTCHAR Atilde
ENCODING 195
SWIDTH 820 0
DWIDTH 10 0
BBX 9 12 0 0
BITMAP
0D00
1600
0000
0C00
0400
0A00
1200
1200
3F00
4100
4100
E380
ENDCHAR

STARTCHAR Adieresis
ENCODING 196
SWIDTH 820 0
DWIDTH 10 0
BBX 9 11 0 0
BITMAP
0A00
0000
0C00
0400
0A00
1200
1200
3F00
4100
4100
E380
ENDCHAR

STARTCHAR Aring
ENCODING 197
SWIDTH 820 0
DWIDTH 10 0
BBX 9 12 0 0
BITMAP
0400
0A00
0400
0C00
0400
0A00
1200
1200
3F00
4100
4100
E380
ENDCHAR

STARTCHAR AE
ENCODING 198
SWIDTH 1000 0
DWIDTH 12 0
BBX 12 9 0 0
BITMAP
07F0
0310
0500
0900
13C0
3E00
2200
4220
E7E0
ENDCHAR

STARTCHAR Ccedilla
ENCODING 199
SWIDTH 740 0
DWIDTH 8 0
BBX 8 12 0 -3
BITMAP
1D
63
41
80
80
80
82
44
38
20
10
60
ENDCHAR

STARTCHAR Egrave
ENCODING 200
SWIDTH 560 0
DWIDTH 7 0
BBX 7 12 0 0
BITMAP
10
08
00
7E
22
20
20
38
40
40
44
FC
ENDCHAR

STARTCHAR Eacute
ENCODING 201
SWIDTH 560 0
DWIDTH 7 0
BBX 7 12 0 0
BITMAP
04
08
00
7E
22
20
20
38
40
40
44
FC
ENDCHAR

STARTCHAR Ecircumflex
ENCODING 202
SWIDTH 560 0
DWIDTH 7 0
BBX 7 12 0 0
BITMAP
08
14
00
7E
22
20
20
38
40
40
44
FC
ENDCHAR

STARTCHAR Edieresis
ENCODING 203
SWIDTH 560 0
DWIDTH 7 0
BBX 7 11 0 0
BITMAP
14
00
7E
22
20
20
38
40
40
44
FC
ENDCHAR

STARTCHAR Igrave
ENCODING 204
SWIDTH 300 0
DWIDTH 4 0
BBX 4 12 0 0
BITMAP
40
20
00
70
20
20
20
40
40
40
40
E0
ENDCHAR

STARTCHAR Iacute
ENCODING 205
SWIDTH 300 0
DWIDTH 4 0
BBX 4 12 0 0
BITMAP
10
20
00
70
20
20
20
40
40
40
40
E0
ENDCHAR

STARTCHAR Icircumflex
ENCODING 206
SWIDTH 300 0
DWIDTH 4 0
BBX 4 12 0 0
BITMAP
20
50
00
70
20
20
20
40
40
40
40
E0
ENDCHAR

STARTCHAR Idieresis
ENCODING 207
SWIDTH 300 0
DWIDTH 4 0
BBX 4 11 0 0
BITMAP
50
00
70
20
20
20
40
40
40
40
E0
ENDCHAR

STARTCHAR Eth
ENCODING 208
SWIDTH 720 0
DWIDTH 9 0
BBX 9 9 0 0
BITMAP
7E00
2100
2080
2080
F080
4100
4100
4200
FC00
ENDCHAR

STARTCHAR Ntilde
ENCODING 209
SWIDTH 800 0
DWIDTH 10 0
BBX 10 12 0 0
BITMAP
0D00
1600
0000
61C0
3080
3080
2880
2880
4500
4500
4300
E100
ENDCHAR

STARTCHAR Ograve
ENCODING 210
SWIDTH 800 0
DWIDTH 9 0
BBX 9 12 0 0
BITMAP
0800
0400
0000
1E00
6100
4080
8080
8080
8080
8100
4300
3C00
ENDCHAR

STARTCHAR Oacute
ENCODING 211
SWIDTH 800 0
DWIDTH 9 0
BBX 9 12 0 0
BITMAP
0200
0400
0000
1E00
6100
4080
8080
8080
8080
8100
4300
3C00
ENDCHAR

STARTCHAR Ocircumflex
ENCODING 212
SWIDTH 800 0
DWIDTH 9 0
BBX 9 12 0 0
BITMAP
0400
0A00
0000
1E00
6100
4080
8080
8080
8080
8100
4300
3C00
ENDCHAR

STARTCHAR Otilde
ENCODING 213
SWIDTH 800 0
DWIDTH 9 0
BBX 9 12 0 0
BITMAP
0D00
1600
0000
1E00
6100
4080
8080
8080
8080
8100
4300
3C00
ENDCHAR

STARTCHAR Odieresis
ENCODING 214
SWIDTH 800 0
DWIDTH 9 0
BBX 9 11 0 0
BITMAP
0A00
0000
1E00
6100
4080
8080
8080
8080
8100
4300
3C00
ENDCHAR

STARTCHAR multiply
ENCODING 215
SWIDTH 660 0
DWIDTH 8 0
BBX 8 7 0 1
BITMAP
41
22
14
18
28
44
82
ENDCHAR

STARTCHAR Oslash
ENCODING 216
SWIDTH 800 0
DWIDTH 9 0
BBX 9 9 0 0
BITMAP
1E80
6100
4280
8480
8880
9080
A100
4300
BC00
ENDCHAR

STARTCHAR Ugrave
ENCODING 217
SWIDTH 700 0
DWIDTH 9 0
BBX 8 12 1 0
BITMAP
10
08
00
E7
42
42
42
84
84
84
84
78
ENDCHAR

STARTCHAR Uacute
ENCODING 218
SWIDTH 700 0
DWIDTH 9 0
BBX 8 12 1 0
BITMAP
04
08
00
E7
42
42
42
84
84
84
84
78
ENDCHAR

STARTCHAR Ucircumflex
ENCODING 219
SWIDTH 700 0
DWIDTH 9 0
BBX 8 12 1 0
BITMAP
08
14
00
E7
42
42
42
84
84
84
84
78
ENDCHAR

STARTCHAR Udieresis
ENCODING 220
SWIDTH 700 0
DWIDTH 9 0
BBX 8 11 1 0
BITMAP
14
00
E7
42
42
42
84
84
84
84
78
ENDCHAR

STARTCHAR Yacute
ENCODING 221
SWIDTH 680 0
DWIDTH 8 0
BBX 9 12 0 0
BITMAP
0400
0800
0000
E380
4100
4200
2400
2800
1000
1000
1000
3800
ENDCHAR

STARTCHAR Thorn
ENCODING 222
SWIDTH 580 0
DWIDTH 7 0
BBX 7 9 0 0
BITMAP
60
3C
22
22
42
44
78
40
E0
ENDCHAR

STARTCHAR germandbls
ENCODING 223
SWIDTH 580 0
DWIDTH 8 0
BBX 7 9 0 0
BITMAP
1C
22
22
24
4C
42
42
52
CC
ENDCHAR

STARTCHAR agrave
ENCODING 224
SWIDTH 660 0
DWIDTH 8 0
BBX 8 10 1 0
BITMAP
10
08
00
3B
46
84
84
84
8C
76
ENDCHAR

STARTCHAR aacute
ENCODING 225
SWIDTH 660 0
DWIDTH 8 0
BBX 8 10 1 0
BITMAP
08
10
00
3B
46
84
84
84
8C
76
ENDCHAR

STARTCHAR acircumflex
ENCODING 226
SWIDTH 660 0
DWIDTH 8 0
BBX 8 10 1 0
BITMAP
10
28
00
3B
46
84
84
84
8C
76
ENDCHAR

STARTCHAR atilde
ENCODING 227
SWIDTH 660 0
DWIDTH 8 0
BBX 8 10 1 0
BITMAP
1A
2C
00
3B
46
84
84
84
8C
76
ENDCHAR

STARTCHAR adieresis
ENCODING 228
SWIDTH 660 0
DWIDTH 8 0
BBX 8 9 1 0
BITMAP
14
00
3B
46
84
84
84
8C
76
ENDCHAR

STARTCHAR aring
ENCODING 229
SWIDTH 660 0
DWIDTH 8 0
BBX 8 10 1 0
BITMAP
10
28
10
3B
46
84
84
84
8C
76
ENDCHAR

STARTCHAR ae
ENCODING 230
SWIDTH 1060 0
DWIDTH 14 0
BBX 12 7 1 0
BITMAP
3AE0
4710
8410
87F0
8400
8E10
75E0
ENDCHAR

STARTCHAR ccedilla
ENCODING 231
SWIDTH 560 0
DWIDTH 8 0
BBX 7 10 1 -3
BITMAP
1A
66
44
80
80
C4
78
40
20
C0
ENDCHAR

STARTCHAR egrave
ENCODING 232
SWIDTH 580 0
DWIDTH 7 0
BBX 7 10 0 0
BITMAP
20
10
00
1C
62
42
FE
80
44
38
ENDCHAR

STARTCHAR eacute
ENCODING 233
SWIDTH 580 0
DWIDTH 7 0
BBX 7 10 0 0
BITMAP
08
10
00
1C
62
42
FE
80
44
38
ENDCHAR

STARTCHAR ecircumflex
ENCODING 234
SWIDTH 580 0
DWIDTH 7 0
BBX 7 10 0 0
BITMAP
08
14
00
1C
62
42
FE
80
44
38
ENDCHAR

STARTCHAR edieresis
ENCODING 235
SWIDTH 580 0
DWIDTH 7 0
BBX 7 9 0 0
BITMAP
14
00
1C
62
42
FE
80
44
38
ENDCHAR

STARTCHAR igrave
ENCODING 236
SWIDTH 260 0
DWIDTH 3 0
BBX 3 10 0 0
BITMAP
40
20
00
60
20
20
40
40
40
E0
ENDCHAR

STARTCHAR iacute
ENCODING 237
SWIDTH 260 0
DWIDTH 3 0
BBX 4 10 0 0
BITMAP
10
20
00
60
20
20
40
40
40
E0
ENDCHAR

STARTCHAR icircumflex
ENCODING 238
SWIDTH 260 0
DWIDTH 3 0
BBX 4 10 0 0
BITMAP
20
50
00
60
20
20
40
40
40
E0
ENDCHAR

STARTCHAR idieresis
ENCODING 239
SWIDTH 260 0
DWIDTH 3 0
BBX 4 9 0 0
BITMAP
50
00
60
20
20
40
40
40
E0
ENDCHAR

STARTCHAR eth
ENCODING 240
SWIDTH 580 0
DWIDTH 8 0
BBX 7 10 1 0
BITMAP
6C
30
C8
3C
46
82
82
82
C4
78
ENDCHAR

STARTCHAR ntilde
ENCODING 241
SWIDTH 660 0
DWIDTH 8 0
BBX 8 10 0 0
BITMAP
0D
16
00
6E
31
21
42
42
42
E7
ENDCHAR

STARTCHAR ograve
ENCODING 242
SWIDTH 580 0
DWIDTH 8 0
BBX 7 10 1 0
BITMAP
20
10
00
3C
46
82
82
82
C4
78
ENDCHAR

STARTCHAR oacute
ENCODING 243
SWIDTH 580 0
DWIDTH 8 0
BBX 7 10 1 0
BITMAP
08
10
00
3C
46
82
82
82
C4
78
ENDCHAR

STARTCHAR ocircumflex
ENCODING 244
SWIDTH 580 0
DWIDTH 8 0
BBX 7 10 1 0
BITMAP
08
14
00
3C
46
82
82
82
C4
78
ENDCHAR

STARTCHAR otilde
ENCODING 245
SWIDTH 580 0
DWIDTH 8 0
BBX 7 10 1 0
BITMAP
1A
2C
00
3C
46
82
82
82
C4
78
ENDCHAR

STARTCHAR odieresis
ENCODING 246
SWIDTH 580 0
DWIDTH 8 0
BBX 7 9 1 0
BITMAP
14
00
3C
46
82
82
82
C4
78
ENDCHAR

STARTCHAR divide
ENCODING 247
SWIDTH 660 0
DWIDTH 8 0
BBX 6 7 1 1
BITMAP
10
10
00
FC
00
20
20
ENDCHAR

STARTCHAR oslash
ENCODING 248
SWIDTH 580 0
DWIDTH 8 0
BBX 9 7 0 0
BITMAP
1E80
2300
4500
4900
5100
6200
BC00
ENDCHAR

STARTCHAR ugrave
ENCODING 249
SWIDTH 640 0
DWIDTH 8 0
BBX 7 10 1 0
BITMAP
20
10
00
C6
42
42
84
84
8C
76
ENDCHAR

STARTCHAR uacute
ENCODING 250
SWIDTH 640 0
DWIDTH 8 0
BBX 7 10 1 0
BITMAP
08
10
00
C6
42
42
84
84
8C
76
ENDCHAR

STARTCHAR ucircumflex
ENCODING 251
SWIDTH 640 0
DWIDTH 8 0
BBX 7 10 1 0
BITMAP
10
28
00
C6
42
42
84
84
8C
76
ENDCHAR

STARTCHAR udieresis
ENCODING 252
SWIDTH 640 0
DWIDTH 8 0
BBX 7 9 1 0
BITMAP
28
00
C6
42
42
84
84
8C
76
ENDCHAR

STARTCHAR yacute
ENCODING 253
SWIDTH 640 0
DWIDTH 8 0
BBX 8 13 1 -3
BITMAP
04
08
00
E7
42
44
48
48
30
20
20
40
E0
ENDCHAR

STARTCHAR thorn
ENCODING 254
SWIDTH 660 0
DWIDTH 7 0
BBX 8 12 -1 -3
BITMAP
30
10
16
19
11
21
21
32
2C
40
40
E0
ENDCHAR

STARTCHAR ydieresis
ENCODING 255
SWIDTH 640 0
DWIDTH 8 0
BBX 8 12 1 -3
BITMAP
14
00
E7
42
44
48
48
30
20
20
40
E0
ENDCHAR
ENDFONT
